PathFileType  4	(X/Y/Z) C:\Users\antoi\Documents\MyRepositories\mobilecap\ResultsAnalysis
DataRate	CameraRate	NumFrames	NumMarkers	Units	OrigDataRate	OrigDataStartFrame	OrigNumFrames
100.0	100.0	4	51	mm	100.0	812	1623
Frame#	Time	r_knee			r_shank_antsup			r_ankle			r_calc			r_5meta			r_toe			L_knee			L_shank_antsup			L_ankle			L_calc			L_5meta			L_toe			r_sh2			r_sh3			r_sh4			L_sh2			L_sh3			r_thigh1			r_thigh2			r_thigh3			r_thigh4			r_thigh5			L_thigh1			L_thigh2			L_thigh3			L_thigh4			r.ASIS			r.PSIS			L.ASIS			L.PSIS			C7			R_Shoulder			L_Shoulder			R_Sternum			L_Sternum			R_humerus			R_elbow_med			R_elbow_lat			R_forearm			R_wrist_radius			R_wrist_ulna			L_humerus			L_elbow_med			L_elbow_lat			L_forearm			L_wrist_radius			L_wrist_ulna			R_HJC			L_HJC			R_HJC_reg			L_HJC_reg			
		X1	Y1	Z1	X2	Y2	Z2	X3	Y3	Z3	X4	Y4	Z4	X5	Y5	Z5	X6	Y6	Z6	X7	Y7	Z7	X8	Y8	Z8	X9	Y9	Z9	X10	Y10	Z10	X11	Y11	Z11	X12	Y12	Z12	X13	Y13	Z13	X14	Y14	Z14	X15	Y15	Z15	X16	Y16	Z16	X17	Y17	Z17	X18	Y18	Z18	X19	Y19	Z19	X20	Y20	Z20	X21	Y21	Z21	X22	Y22	Z22	X23	Y23	Z23	X24	Y24	Z24	X25	Y25	Z25	X26	Y26	Z26	X27	Y27	Z27	X28	Y28	Z28	X29	Y29	Z29	X30	Y30	Z30	X31	Y31	Z31	X32	Y32	Z32	X33	Y33	Z33	X34	Y34	Z34	X35	Y35	Z35	X36	Y36	Z36	X37	Y37	Z37	X38	Y38	Z38	X39	Y39	Z39	X40	Y40	Z40	X41	Y41	Z41	X42	Y42	Z42	X43	Y43	Z43	X44	Y44	Z44	X45	Y45	Z45	X46	Y46	Z46	X47	Y47	Z47	X48	Y48	Z48	X49	Y49	Z49	X50	Y50	Z50	X51	Y51	Z51	

812	8.11000000	-269.58561	543.53574	-437.74088	-254.13588	471.84785	-408.02126	-301.03728	104.64708	-379.95325	-349.63045	53.79710	-428.63048	-166.31309	37.17303	-310.26075	-122.04098	62.99658	-362.67643	-257.40819	545.42305	-856.62880	-230.64447	433.64228	-884.85122	-279.76326	100.83966	-895.35708	-342.73779	53.25742	-855.61748	-130.29980	32.46393	-946.29430	-100.34484	58.84483	-883.40316	-259.81502	361.24011	-381.90977	-328.28980	473.42127	-411.30025	-340.51398	358.57088	-396.41811	-319.90861	443.64270	-890.01429	-318.96061	322.83488	-902.90210	-186.48109	863.18522	-444.23407	-182.85989	752.01751	-436.73805	-239.96205	724.94630	-416.32305	-300.88534	848.84589	-463.62820	-289.26414	734.99600	-442.12514	-167.75720	867.41288	-846.41700	-169.47085	726.11020	-858.29527	-288.46530	862.53875	-850.98936	-278.50731	723.74542	-861.91465	-135.34375	1042.22623	-517.00213	-318.17896	1103.03117	-602.24687	-131.30848	1042.27999	-781.07203	-316.84849	1105.21492	-704.85542	-328.02868	1593.87786	-662.48752	-272.57162	1563.93645	-484.60376	-252.75385	1577.62940	-821.87702	-171.17574	1551.48879	-622.83649	-167.11690	1548.16581	-678.36533	-299.00374	1295.63031	-396.37369	-323.73003	1203.15638	-473.12086	-321.17574	1208.53962	-388.91848	-238.98243	1071.42919	-362.59505	-180.89496	970.90616	-366.81602	-223.76768	962.73689	-355.71220	-257.20248	1316.60710	-907.10783	-307.03941	1232.19933	-844.29792	-283.22288	1230.24153	-908.18649	-226.86123	1067.13444	-920.07312	-188.97829	975.91127	-906.61765	-225.69858	965.96774	-918.30940	-227.77453	973.63759	-528.91817	-220.98074	974.15755	-759.18543	-215.90659	971.71931	-557.12654	-213.64759	975.42801	-731.37881	
813	8.12000000	-269.17949	543.46254	-437.70160	-253.65905	471.84959	-408.08365	-301.03792	104.70923	-380.00781	-349.65796	53.82116	-428.62434	-166.31638	37.17724	-310.24464	-122.05911	62.94722	-362.69173	-257.02758	545.38573	-856.73284	-230.36733	433.64049	-884.81195	-279.70856	100.87656	-895.35368	-342.73213	53.29825	-855.61793	-130.29024	32.47682	-946.33757	-100.31621	58.79850	-883.40759	-259.55849	361.22392	-381.94275	-327.92181	473.44100	-411.19914	-340.18834	358.67974	-396.34685	-319.63655	443.66033	-890.04693	-318.73194	322.82972	-903.04105	-185.87905	863.22352	-443.97877	-181.98425	751.89260	-436.92646	-239.17764	724.84041	-416.38906	-300.12310	848.66164	-463.70664	-288.49322	735.05122	-442.00838	-167.02715	867.32695	-846.12007	-168.81346	726.01921	-858.18971	-287.78180	862.53149	-850.92601	-277.86732	723.72866	-861.98507	-134.54089	1042.22954	-516.89898	-317.49966	1102.92866	-602.26832	-130.67069	1042.32687	-781.21610	-316.24465	1105.19939	-704.78742	-328.24491	1593.73003	-662.64734	-272.86694	1563.74876	-484.68749	-253.25842	1577.27493	-821.98509	-171.48217	1551.46684	-623.00101	-167.38159	1548.13219	-678.38274	-299.33212	1295.52247	-396.49604	-323.98842	1203.07993	-473.21785	-321.44343	1208.44662	-388.93636	-238.97391	1071.37647	-362.91864	-180.78201	971.01120	-367.17958	-223.56093	962.67163	-356.12777	-257.81079	1316.22155	-907.03084	-307.75054	1231.96712	-843.99260	-283.94932	1229.83607	-907.77725	-227.43136	1066.78449	-919.49497	-189.51294	975.72853	-905.90858	-226.13499	965.66120	-917.55704	-226.98649	973.59763	-528.93342	-220.29305	974.16215	-759.20348	-215.08425	971.51367	-557.07017	-212.94911	975.37643	-731.48238	
814	8.13000000	-268.69516	543.49080	-437.56230	-253.17831	471.83849	-408.06111	-301.02251	104.82035	-380.04314	-349.64596	53.84204	-428.59122	-166.31541	37.15941	-310.22914	-122.05069	62.94710	-362.68652	-256.64558	545.35028	-856.80350	-230.14245	433.61779	-884.73170	-279.67716	100.90457	-895.32576	-342.70211	53.30797	-855.61420	-130.28129	32.48212	-946.33929	-100.25985	58.77854	-883.42862	-259.40607	361.13963	-382.03286	-327.62369	473.41385	-411.20159	-339.90508	358.71046	-396.34175	-319.45116	443.69241	-889.99386	-318.42230	323.01475	-903.24107	-185.11486	863.08281	-444.08809	-181.22961	751.81907	-437.07537	-238.38378	724.87138	-416.34283	-299.42685	848.79635	-463.17202	-287.78763	734.98375	-441.94237	-166.12852	867.10731	-845.37550	-168.12290	725.82151	-857.91414	-287.19262	862.41755	-850.65481	-277.28873	723.73385	-862.08327	-133.80611	1042.22688	-516.97091	-316.87369	1102.90724	-602.19201	-130.07611	1042.25302	-781.08862	-315.68287	1105.24183	-704.64433	-328.44355	1593.58486	-662.82741	-273.15739	1563.66037	-484.87116	-253.70782	1576.98340	-821.99939	-171.72953	1551.45166	-623.16653	-167.62189	1548.11591	-678.42124	-299.61350	1295.43438	-396.64705	-324.13013	1203.03354	-473.29423	-321.67292	1208.43258	-388.95296	-239.01848	1071.37751	-363.15877	-180.69824	971.12537	-367.46354	-223.36057	962.66732	-356.48277	-258.43343	1315.93443	-907.08612	-308.47425	1231.72446	-843.73620	-284.64966	1229.77210	-907.89145	-228.02187	1066.47703	-918.84391	-189.92738	975.70262	-905.62564	-226.57530	965.37951	-916.64418	-226.30658	973.60266	-528.84840	-219.73249	974.13131	-759.12196	-214.33124	971.44519	-557.10201	-212.30541	975.41613	-731.38012	
815	8.14000000	-268.19710	543.57508	-437.44139	-252.75328	471.91424	-407.82072	-300.98462	104.84200	-380.08006	-349.59065	53.85630	-428.57365	-166.27384	37.14284	-310.15621	-122.01575	62.98385	-362.67150	-256.32738	545.26060	-856.68566	-229.97195	433.63946	-884.70715	-279.68724	100.89409	-895.26558	-342.65967	53.30393	-855.60451	-130.27779	32.43950	-946.26079	-100.24899	58.77478	-883.43744	-259.18435	361.08545	-382.16637	-327.31106	473.41061	-411.28629	-339.62882	358.63994	-396.34322	-319.30562	443.71447	-889.88458	-318.12096	323.56525	-903.33403	-184.15363	862.83354	-444.67226	-180.59894	751.75208	-437.09380	-237.59928	724.94751	-416.26635	-298.56090	848.99592	-462.95383	-287.10798	734.91437	-441.89466	-165.21735	866.85755	-844.43446	-167.51038	725.60242	-857.50697	-286.64712	862.34720	-850.38447	-276.80570	723.80701	-862.22237	-133.11863	1042.22982	-517.16143	-316.26448	1102.95124	-602.01998	-129.54184	1042.26434	-781.00132	-315.14746	1105.24509	-704.47437	-328.68739	1593.43294	-662.95300	-273.44205	1563.69282	-485.03850	-254.03790	1576.80386	-822.01819	-171.90570	1551.44987	-623.29449	-167.82499	1548.11612	-678.47918	-299.89362	1295.37569	-396.85616	-324.31451	1202.85425	-473.41277	-321.90716	1208.43748	-389.02992	-239.08957	1071.44739	-363.32505	-180.60615	971.28445	-367.67794	-223.22091	962.73871	-356.69595	-259.16923	1315.72533	-907.09689	-309.18888	1231.50633	-843.47252	-285.33802	1230.03064	-908.46432	-228.61583	1066.23617	-918.30528	-190.30818	975.67541	-905.47063	-227.01204	965.13741	-915.74607	-225.61169	973.60970	-528.79373	-219.23643	974.15398	-759.07282	-213.66121	971.60376	-557.15641	-211.76317	975.50174	-731.25260	
